<svg viewBox="0 0 30 30" xml:space="preserve" xmlns="http://www.w3.org/2000/svg" enable-background="new 0 0 30 30"><path d="M9 10v3l2 1" fill="none" stroke="#0000a0" stroke-width="2" stroke-linecap="round" stroke-linejoin="round" stroke-miterlimit="10" class="stroke-000000"></path><path d="M23 16v-4a1 1 0 0 1 1-1h2.857l-.338-.788A2 2 0 0 0 24.681 9H18v14h3.05a2.543 2.543 0 0 1 .087-1.326 2.471 2.471 0 0 1 1.738-1.598A2.504 2.504 0 0 1 25.95 23H29v-7h-6z" fill="#0000a0" class="fill-000000"></path><circle cx="23.5" cy="22.5" r="2.5" fill="none" stroke="#0000a0" stroke-width="2" stroke-miterlimit="10" class="stroke-000000"></circle><circle cx="7.5" cy="22.5" r="2.5" fill="none" stroke="#0000a0" stroke-width="2" stroke-miterlimit="10" class="stroke-000000"></circle><path d="M28 22h1M1 22h2" fill="none" stroke="#0000a0" stroke-width="2" stroke-linecap="round" stroke-miterlimit="10" class="stroke-000000"></path><path d="M16 5H3a2 2 0 0 0-2 2v16h4.05a2.543 2.543 0 0 1 .087-1.326 2.47 2.47 0 0 1 1.739-1.598A2.504 2.504 0 0 1 9.95 23H18V7a2 2 0 0 0-2-2zM9 18a5 5 0 1 1 .001-10.001A5 5 0 0 1 9 18z" fill="#0000a0" class="fill-000000"></path></svg>