<svg width="79" height="74" viewBox="0 0 79 74" fill="none" xmlns="http://www.w3.org/2000/svg">
<path d="M39.2785 72.0187H37.3204L20.9781 65.3207L2 58.1953L3.05434 16.0127L18.7941 10.0985L28.7351 6.39331L39.2785 2.11804L76.7076 16.0127V57.7678L70.3306 60.6188C70.231 60.6683 70.0662 60.7417 69.8544 60.8317L70.3306 60.6188C71.2812 60.1464 66.2744 61.8534 39.2785 72.0187Z" fill="#F9A046"/>
<path d="M39.2785 72.0187H37.3204L20.9781 65.3207L2 58.1953L3.05434 16.0127M39.2785 72.0187V29.4085M39.2785 72.0187C69.1013 60.789 72.0886 59.8817 69.8544 60.8317L76.7076 57.7678V16.0127M39.2785 29.4085L52.3325 24.8728M39.2785 29.4085L3.05434 16.0127M76.7076 16.0127L63.6036 20.5017M76.7076 16.0127L39.2785 2.11804L28.7351 6.39331M63.6036 20.5017V33.3275L58.8591 31.9024L52.6084 36.6052V24.777L52.3325 24.8728M63.6036 20.5017L28.7351 6.39331M18.7941 10.0985L52.3325 24.8728M18.7941 10.0985L28.7351 6.39331M18.7941 10.0985L3.05434 16.0127" stroke="white" stroke-width="3"/>
<path d="M28.8857 5.96579L19.3966 9.67102L52.3071 24.777V36.534L59.4616 31.2611L63.3024 32.6862V20.2879L28.8857 5.96579Z" fill="#FCFCF9" stroke="white" stroke-width="2"/>
</svg>
