<svg width="47" height="28" viewBox="0 0 47 28" fill="none" xmlns="http://www.w3.org/2000/svg">
<path fill-rule="evenodd" clip-rule="evenodd" d="M9.5 23.5C10 25.5 11.5 27.5 15 27.5C17.5 27.5 19 26.5 20 24.5H30.5C31.5 26 32.5 27.5 36 27.5C38 27.5 40.5 26.5 41.5 23.5H44.3501C44.7453 23.5 45.1034 23.2673 45.2639 22.9061L47 19L46 18C46.0649 17.6749 46.1291 17.3699 46.19 17.0804C46.4825 15.6897 46.7002 14.6549 46.5665 13.4552C46.5342 13.165 46.3552 12.9134 46.1002 12.7711C44.6134 11.9413 43.6468 11.6659 42 11.5L41.6026 11.1387C36.4487 6.45116 35.3894 5.48772 31 5V0H7.5V1.5H3V3.5H17.5V5.5H7.5V7.5H1.5V9.5H14.5V11.5H7.5V14H0V15.5H11V18H7.5V18.5L6.36389 19.6361C6.13553 19.8645 6.03151 20.1891 6.0846 20.5076L6.26514 21.5909C6.40564 22.4338 7.06619 23.0944 7.90913 23.2349L9.5 23.5ZM36.83 12.0049C36.6267 12.31 36.2726 12.4793 35.9075 12.4461L31 12V7.5C33.6332 7.4269 35.0577 8.17587 37.5 11L36.83 12.0049ZM36 19C34.35 18.85 32.85 20.35 33 22C33.1381 23.5188 34.4812 24.6381 36 24.5C37.375 24.375 38.375 23.375 38.5 22C38.6381 20.4812 37.5188 19.1381 36 19ZM18 22C17.8619 23.5188 16.525 24.5 15 24.5C13.475 24.5 12.1381 23.5188 12 22C11.85 20.35 13.3431 19 15 19C16.6569 19 18.1506 20.3431 18 22Z" fill="#1F86FF"/>
<path fill-rule="evenodd" clip-rule="evenodd" d="M15 27.5C17.5 27.5 19 26.5 20 24.5H30.5C31.5 26 32.5 27.5 36 27.5C38 27.5 40.5 26.5 41.5 23.5H44.3501C44.7453 23.5 45.1034 23.2673 45.2639 22.9061L47 19L46 18C46.0649 17.6749 46.129 17.3699 46.1899 17.0804C46.4825 15.6897 46.7002 14.6549 46.5665 13.4552C46.5341 13.165 46.3552 12.9134 46.1002 12.7711C44.6133 11.9413 43.6468 11.6659 42 11.5L41.6026 11.1387C36.4487 6.45116 35.3894 5.48772 31 5V0H29C28.2634 11.1791 26.2662 16.0845 17.67 20.5076C17.9219 20.9471 18.0494 21.4567 18 22C17.8619 23.5188 16.525 24.5 15 24.5C14.067 24.5 13.2045 24.1328 12.6438 23.5L9.84204 24.5C10.5613 26.1164 12.0889 27.5 15 27.5ZM33 22C32.85 20.35 34.3499 18.85 36 19C37.5188 19.1381 38.638 20.4812 38.5 22C38.375 23.375 37.375 24.375 36 24.5C34.4812 24.6381 33.138 23.5188 33 22ZM36.83 12.0049C36.6266 12.31 36.2726 12.4793 35.9074 12.4461L31 12V7.5C33.6332 7.4269 35.0576 8.17587 37.5 11L36.83 12.0049Z" fill="#143CCB"/>
</svg>
